<?xml version="1.0" encoding="utf-8"?>
<svg xmlns="http://www.w3.org/2000/svg" viewBox="0 0 200 100" width="200px" height="200px" preserveAspectRatio="none"><defs><linearGradient gradientUnits="userSpaceOnUse" x1="259.466" y1="43.929" x2="259.466" y2="211.661" id="gradient-0"><stop offset="0" style="stop-color: #bada55"/><stop offset="1" style="stop-color: #758d29"/></linearGradient><linearGradient id="gradient-2"><title>Inclusvité</title><stop offset="0" style="stop-color: rgb(195, 23, 255);"/><stop offset="0.19" style="stop-color: rgb(8, 0, 255);"/><stop offset="0.369" style="stop-color: rgb(25, 255, 0);"/><stop offset="0.609" style="stop-color: rgb(255, 239, 0);"/><stop offset="0.853" style="stop-color: rgb(255, 0, 0);"/><stop offset="1" style=""/></linearGradient><linearGradient id="gradient-2-1" href="#gradient-2" gradientUnits="userSpaceOnUse" x1="259.466" y1="43.929" x2="259.466" y2="211.661"/></defs><text style="fill: url(&quot;#gradient-2-1&quot;); font-family: Arial, sans-serif; font-size: 150px; paint-order: fill; stroke: url(&quot;#gradient-0&quot;); white-space: pre;" transform="matrix(0.663385, 0, 0, 0.532056, -67.445054, -12.748696)"><tspan x="167.732" y="179.712">XL</tspan><tspan x="167.732" dy="1em">​</tspan></text><path d="M 30.58 17.424 L 175.232 17.424 L 175.232 93.068 L 30.58 93.068 L 30.58 17.424 Z M 35.878 21.673 L 35.878 88.818 L 169.933 88.818 L 169.933 21.673 L 35.878 21.673 Z" style="stroke: rgb(0, 0, 0); fill: rgb(144, 24, 155);"/><rect x="28.99" width="146.772" height="21.673" style="stroke: rgb(0, 0, 0); fill: rgb(119, 112, 238);"/><path d="M 171.692 14.313 L 170.293 15.435 L 164.93 11.134 L 159.801 15.248 L 158.402 14.126 L 163.531 10.012 L 158.637 6.085 L 160.034 4.964 L 164.93 8.89 L 170.061 4.776 L 171.459 5.898 L 166.33 10.012 L 171.692 14.313 Z" style="stroke: rgb(0, 0, 0); fill: rgb(255, 0, 0);"/><rect x="140.261" y="8.169" width="13.777" height="5.1" style="stroke: rgb(0, 0, 0); fill: rgb(83, 0, 255);"/><path style="fill: rgb(255, 255, 255); stroke: rgb(255, 255, 255);" d="M 133.902 13.268 C 133.222 13.268 120.656 12.844 120.656 12.844"/></svg>