<?xml version="1.0" encoding="utf-8"?>
<svg xmlns="http://www.w3.org/2000/svg" viewBox="0 0 500 500" xmlns:bx="https://boxy-svg.com" width="500px" height="500px"><defs><linearGradient gradientUnits="userSpaceOnUse" x1="259.466" y1="43.929" x2="259.466" y2="211.661" id="gradient-0"><stop offset="0" style="stop-color: #bada55"/><stop offset="1" style="stop-color: #758d29"/></linearGradient><linearGradient id="gradient-2"><title>Inclusvité</title><stop offset="0" style="stop-color: rgb(195, 23, 255);"/><stop offset="0.19" style="stop-color: rgb(8, 0, 255);"/><stop offset="0.369" style="stop-color: rgb(25, 255, 0);"/><stop offset="0.609" style="stop-color: rgb(255, 239, 0);"/><stop offset="0.853" style="stop-color: rgb(255, 0, 0);"/><stop offset="1" style=""/></linearGradient><linearGradient id="gradient-2-1" href="#gradient-2" gradientUnits="userSpaceOnUse" x1="259.466" y1="43.929" x2="259.466" y2="211.661"/></defs><text style="fill: url(&quot;#gradient-2-1&quot;); font-family: Arial, sans-serif; font-size: 150px; paint-order: fill; stroke: url(&quot;#gradient-0&quot;); white-space: pre;" transform="matrix(1, 0, 0, 1, 5.591054, 71.086266)"><tspan x="167.732" y="179.712">XL</tspan><tspan x="167.732" dy="1em">​</tspan></text><path d="M 153.355 127.796 H 371.406 V 269.969 H 153.355 V 127.796 Z M 161.342 135.783 V 261.982 H 363.419 V 135.783 H 161.342 Z" style="stroke: rgb(0, 0, 0); fill: rgb(144, 24, 155);"/><rect x="150.958" y="95.048" width="221.246" height="40.735" style="stroke: rgb(0, 0, 0); fill: rgb(119, 112, 238);"/><path d="M 412.248 191.249 H 415.23 V 202.681 H 426.164 V 205.663 H 415.23 V 216.1 H 412.248 V 205.663 H 401.313 V 202.681 H 412.248 Z" style="stroke: rgb(0, 0, 0); fill: rgb(255, 0, 0);" transform="matrix(-0.70710678, 0.70710678, -0.70710678, -0.70710678, 792.80633545, -34.32035446)"/><rect x="318.69" y="110.401" width="20.767" height="9.585" style="stroke: rgb(0, 0, 0); fill: rgb(83, 0, 255);"/><path style="fill: rgb(255, 255, 255); stroke: rgb(255, 255, 255);" d="M 309.105 119.986 C 308.079 119.986 289.137 119.187 289.137 119.187"/></svg>